HIERARCHY
ROOT Hips
{
	OFFSET -0.001795 -0.223333 0.028219
	CHANNELS 6 Xposition Yposition Zposition Zrotation Yrotation Xrotation 
	JOINT LeftUpLeg
	{
		OFFSET 0.069520 -0.091406 -0.006815
		CHANNELS 3 Zrotation Yrotation Xrotation
		JOINT LeftLeg
		{
			OFFSET 0.034277 -0.375199 -0.004496
			CHANNELS 3 Zrotation Yrotation Xrotation
			JOINT LeftFoot
			{
				OFFSET -0.013596 -0.397961 -0.043693
				CHANNELS 3 Zrotation Yrotation Xrotation
				JOINT LeftToe
				{
					OFFSET 0.026358 -0.055791 0.119288
					CHANNELS 3 Zrotation Yrotation Xrotation
					End Site
					{
						OFFSET 0.000000 0.000000 0.000000
					}
				}
			}
		}
	}
	JOINT RightUpLeg
	{
		OFFSET -0.067670 -0.090522 -0.004320
		CHANNELS 3 Zrotation Yrotation Xrotation
		JOINT RightLeg
		{
			OFFSET -0.038290 -0.382569 -0.008850
			CHANNELS 3 Zrotation Yrotation Xrotation
			JOINT RightFoot
			{
				OFFSET 0.015774 -0.398415 -0.042312
				CHANNELS 3 Zrotation Yrotation Xrotation
				JOINT RightToe
				{
					OFFSET -0.025372 -0.048144 0.123348
					CHANNELS 3 Zrotation Yrotation Xrotation
					End Site
					{
						OFFSET 0.000000 0.000000 0.000000
					}
				}
			}
		}
	}
	JOINT Spine
	{
		OFFSET -0.002533 0.108963 -0.026696
		CHANNELS 3 Zrotation Yrotation Xrotation
		JOINT Spine1
		{
			OFFSET 0.005487 0.135180 0.001092
			CHANNELS 3 Zrotation Yrotation Xrotation
			JOINT Spine2
			{
				OFFSET 0.001457 0.052922 0.025425
				CHANNELS 3 Zrotation Yrotation Xrotation
				JOINT Neck
				{
					OFFSET -0.002778 0.213870 -0.042857
					CHANNELS 3 Zrotation Yrotation Xrotation
					JOINT Head
					{
						OFFSET 0.005152 0.064970 0.051349
						CHANNELS 3 Zrotation Yrotation Xrotation
						End Site
						{
							OFFSET 0.000000 0.000000 0.000000
						}
					}
				}
				JOINT LeftShoulder
				{
					OFFSET 0.078845 0.121749 -0.034090
					CHANNELS 3 Zrotation Yrotation Xrotation
					JOINT LeftArm
					{
						OFFSET 0.090977 0.030469 -0.008868
						CHANNELS 3 Zrotation Yrotation Xrotation
						JOINT LeftForeArm
						{
							OFFSET 0.259612 -0.012772 -0.027456
							CHANNELS 3 Zrotation Yrotation Xrotation
							JOINT LeftHand
							{
								OFFSET 0.249234 0.008986 -0.001171
								CHANNELS 3 Zrotation Yrotation Xrotation
								End Site
								{
									OFFSET 0.000000 0.000000 0.000000
								}
							}
						}
					}
				}
				JOINT RightShoulder
				{
					OFFSET -0.081759 0.118833 -0.038615
					CHANNELS 3 Zrotation Yrotation Xrotation
					JOINT RightArm
					{
						OFFSET -0.096012 0.032551 -0.009143
						CHANNELS 3 Zrotation Yrotation Xrotation
						JOINT RightForeArm
						{
							OFFSET -0.253742 -0.013329 -0.021401
							CHANNELS 3 Zrotation Yrotation Xrotation
							JOINT RightHand
							{
								OFFSET -0.255298 0.007772 -0.005559
								CHANNELS 3 Zrotation Yrotation Xrotation
								End Site
								{
									OFFSET 0.000000 0.000000 0.000000
								}
							}
						}
					}
				}
			}
		}
	}
}
MOTION
Frames: 11
Frame Time: 0.050000
0.000000 0.591726 0.000000 -2.717262 3.264856 -27.584311 15.746924 1.537213 -56.393402 -17.010986 12.922256 89.815642 9.243846 18.812302 -0.370641 0.000000 0.000000 0.000000 -9.192727 -0.067024 -52.343778 16.814517 -18.136062 95.757366 -10.747168 -26.149161 -3.241303 0.000000 0.000000 0.000000 -5.107141 -0.695149 38.030646 4.497221 -0.575667 -26.232572 0.636036 0.025104 25.508994 0.906806 1.238329 -23.871984 0.000000 0.000000 0.000000 -31.742349 -17.391765 8.543007 -37.371057 -29.249212 2.802585 19.984107 -35.524837 -5.060995 0.000000 0.000000 0.000000 21.463405 22.604924 11.138427 36.978391 24.781407 1.751224 -38.029373 51.132214 -15.754644 0.000000 0.000000 0.000000 
0.001053 0.591339 0.001225 -3.616382 2.743652 -26.102785 16.782608 2.211121 -58.282292 -16.698484 13.057451 91.179447 8.213558 16.783672 -0.715935 0.000000 0.000000 0.000000 -7.773029 0.813774 -54.348295 16.217569 -17.751893 96.619472 -11.114012 -26.849033 -2.047927 0.000000 0.000000 0.000000 -3.974715 -0.956399 37.725114 4.040140 -0.290010 -28.998577 0.742697 -0.808685 27.120738 1.508979 0.692293 -24.459180 0.000000 0.000000 0.000000 -32.168265 -17.992289 9.480754 -36.709272 -28.959536 2.322948 23.503757 -36.011423 -6.134824 0.000000 0.000000 0.000000 20.994085 21.787371 10.548275 32.616846 26.201516 1.599310 -45.905617 51.052239 -19.932195 0.000000 0.000000 0.000000 
0.001877 0.594230 0.002037 -3.601617 4.044747 -25.478753 16.240476 1.431124 -58.477117 -16.327971 11.990094 90.390168 7.867390 16.216367 0.487997 0.000000 0.000000 0.000000 -8.565647 -0.013107 -54.647800 15.496253 -17.038609 95.381601 -11.076081 -26.477292 -0.827972 0.000000 0.000000 0.000000 -3.646849 -1.151683 36.476837 5.345924 -0.699839 -27.237360 -1.005829 -0.180727 25.067687 2.697701 -0.168606 -20.952596 0.000000 0.000000 0.000000 -33.420550 -18.000532 8.921365 -36.711306 -28.350415 2.500915 24.246479 -35.493173 -6.429346 0.000000 0.000000 0.000000 20.465565 21.427705 10.593077 27.996071 27.136858 1.409614 -55.163912 48.851841 -23.642839 0.000000 0.000000 0.000000 
0.002381 0.595098 0.003297 -3.450838 3.987682 -25.224984 16.011641 1.341299 -58.768906 -16.264134 12.298615 91.699531 8.339100 17.062965 -0.826806 0.000000 0.000000 0.000000 -7.679479 0.513950 -55.595017 14.389412 -15.827505 96.282530 -11.247082 -26.711578 0.486703 0.000000 0.000000 0.000000 -3.888938 -1.082015 36.698356 5.361206 -0.584242 -29.110453 -1.292992 -0.395004 25.515686 2.684466 -0.149918 -21.694116 0.000000 0.000000 0.000000 -33.677523 -16.848526 8.323981 -36.959478 -28.318314 2.412516 23.377419 -34.210242 -5.858431 0.000000 0.000000 0.000000 18.408882 20.320234 9.608244 25.308724 28.902156 1.437864 -64.376814 45.569655 -26.558079 0.000000 0.000000 0.000000 
0.002460 0.595897 0.004821 -2.943385 3.629927 -25.046974 15.849105 1.436004 -57.833345 -16.230331 12.266031 90.796441 8.579406 17.449053 -1.991109 0.000000 0.000000 0.000000 -7.891448 0.551143 -55.464884 14.585441 -15.422593 94.964067 -11.300941 -26.727049 0.837573 0.000000 0.000000 0.000000 -4.908772 -0.746764 36.726112 5.665394 -0.678225 -29.023059 -1.120169 0.362516 24.739150 2.977669 -0.319327 -20.982868 0.000000 0.000000 0.000000 -34.256395 -17.315517 8.471136 -35.832566 -27.021890 2.027437 23.116547 -33.347785 -5.692866 0.000000 0.000000 0.000000 17.243511 20.530388 9.560072 22.514514 28.494753 1.069027 -73.661034 39.771425 -27.151966 0.000000 0.000000 0.000000 
0.002119 0.595378 0.006145 -3.089128 4.353319 -24.908675 15.930490 1.209202 -58.218847 -16.503618 12.325353 90.967018 8.584309 17.499474 -1.687173 0.000000 0.000000 0.000000 -8.435941 0.006366 -55.651905 14.806568 -15.994164 94.769234 -11.148459 -26.441876 0.514505 0.000000 0.000000 0.000000 -4.594422 -0.916165 36.424204 5.142477 -0.523453 -29.125426 -1.613263 0.001430 24.922958 2.859966 -0.242584 -20.962360 0.000000 0.000000 0.000000 -33.893328 -16.631338 7.947379 -36.210356 -26.513530 1.883707 22.815681 -34.149239 -5.729525 0.000000 0.000000 0.000000 16.171669 19.923897 9.121041 20.771417 29.150741 0.935241 -80.166931 35.449174 -26.872040 0.000000 0.000000 0.000000 
0.001564 0.596105 0.006902 -3.034207 4.462277 -24.823744 15.931829 1.180373 -57.915934 -16.306942 12.061617 91.160187 8.335216 16.923831 -2.700267 0.000000 0.000000 0.000000 -8.579962 -0.099936 -55.332376 14.964642 -16.042103 94.034009 -10.888521 -25.876568 0.296513 0.000000 0.000000 0.000000 -4.911483 -0.848742 36.520493 4.929609 -0.460252 -29.281408 -1.762362 0.424247 25.070183 3.108256 -0.332209 -20.997590 0.000000 0.000000 0.000000 -33.111708 -16.668180 7.740452 -36.435062 -26.515125 1.945565 23.214805 -34.373022 -5.922585 0.000000 0.000000 0.000000 14.871928 19.512874 8.781961 20.089907 29.915939 0.946043 -82.569732 31.527404 -24.495949 0.000000 0.000000 0.000000 
0.000932 0.595602 0.007175 -3.067745 4.458600 -24.501330 16.163062 1.301014 -58.309268 -16.557184 12.464497 91.499967 8.490775 17.240962 -2.996661 0.000000 0.000000 0.000000 -8.782890 -0.216798 -55.748710 15.556425 -16.744780 93.825095 -11.331849 -26.805711 0.584931 0.000000 0.000000 0.000000 -4.951996 -0.846353 36.637810 4.473733 -0.371553 -28.778427 -1.996599 0.415854 24.666660 3.724893 -0.818203 -20.466682 0.000000 0.000000 0.000000 -32.895119 -16.829775 7.810521 -36.477451 -26.500647 1.980505 24.783957 -35.133838 -6.576601 0.000000 0.000000 0.000000 14.440227 19.624169 8.750531 20.264700 30.070030 1.015786 -82.624109 29.968199 -23.115987 0.000000 0.000000 0.000000 
0.000304 0.595293 0.007097 -3.149587 4.418710 -24.249318 16.483307 1.488254 -58.369423 -16.795186 12.880287 92.030216 8.658846 17.547716 -4.043515 0.000000 0.000000 0.000000 -8.975463 -0.318058 -55.884512 16.140548 -17.425898 93.647817 -11.771829 -27.786667 0.435552 0.000000 0.000000 0.000000 -4.998279 -0.843173 37.012154 3.652822 -0.186115 -28.310391 -1.841600 0.276962 24.078116 4.107174 -1.089920 -20.635722 0.000000 0.000000 0.000000 -32.894051 -17.073368 8.003676 -36.624941 -26.219455 1.940600 26.523322 -35.979446 -7.320849 0.000000 0.000000 0.000000 14.649828 19.679209 8.768985 20.651197 29.960483 1.089398 -77.900107 29.428697 -20.913074 0.000000 0.000000 0.000000 
-0.000258 0.594293 0.006977 -3.145054 4.432948 -23.890377 16.959761 1.744481 -58.715587 -17.129384 13.386985 92.304975 8.697609 17.634390 -4.199610 0.000000 0.000000 0.000000 -9.082748 -0.379662 -55.917338 16.736995 -18.111562 93.326492 -12.586696 -29.663100 -0.215561 0.000000 0.000000 0.000000 -5.221016 -0.787483 37.179991 3.285472 -0.106941 -27.916142 -2.066707 0.577458 24.039080 5.312099 -1.803422 -21.195760 0.000000 0.000000 0.000000 -32.816080 -16.741568 7.645163 -36.766783 -26.628019 2.136099 27.274875 -36.543589 -7.729353 0.000000 0.000000 0.000000 14.588494 19.852097 8.891510 20.476958 30.280088 1.114420 -72.795929 27.207898 -17.393578 0.000000 0.000000 0.000000 
-0.000898 0.592393 0.006990 -3.095485 4.486656 -23.775709 17.133082 1.823257 -59.132712 -17.557706 14.034604 92.648199 8.883921 18.060616 -3.996807 0.000000 0.000000 0.000000 -9.285308 -0.511790 -56.154282 17.431661 -19.013662 93.376014 -13.146599 -31.013577 -0.733770 0.000000 0.000000 0.000000 -5.233270 -0.796102 37.502006 2.599419 0.064326 -27.723359 -2.092695 0.639213 23.963389 5.669487 -2.056633 -21.122240 0.000000 0.000000 0.000000 -33.373617 -17.331418 8.041001 -36.253606 -25.977409 1.918720 27.912272 -37.228820 -8.124795 0.000000 0.000000 0.000000 14.672680 20.507503 9.212329 19.381089 29.715744 0.899773 -67.154299 25.173951 -14.412324 0.000000 0.000000 0.000000 
